REM DIRINDEX 1\8,1\2\11,1\3\12,1\3\14,1\5\15,1\5\16,1\6\17,1\6\18,1\4\19,1\4\20,1\4\21,1\4\22,1\7\23,1\7\24,1\7\25,1\2\9\26,1\2\9\27,1\2\10\28,1\2\10\29,1\2\10\30,1\2\10\31,1\2\10\32,1\3\13\33,1\3\13\34,1\3\13\35
REM DIRNAME folder01,folder02,folder03,folder04,folder05,folder06,folder07,folder08,folder09,folder10,folder11,folder12,folder13,folder14,folder15,folder16,folder17,folder18,folder19,folder20,folder21,folder22,folder23,folder24,folder25,folder26,folder27,folder28,folder29,folder30,folder31,folder32,folder33,folder34,folder35
TITLE ""
FILE "85 085_UNIT2_SET4.mp3" MP3
  TRACK 01 AUDIO
    TITLE "14:cjc123_7641"
    INDEX 01 00:00:00
  TRACK 02 AUDIO
    TITLE "0:"
    INDEX 01 00:02:47
  TRACK 03 AUDIO
    TITLE "33:cjc123_7642"
    INDEX 01 00:03:23
  TRACK 04 AUDIO
    TITLE "0:"
    INDEX 01 00:04:44
  TRACK 05 AUDIO
    TITLE "34:cjc123_7643"
    INDEX 01 00:04:52
  TRACK 06 AUDIO
    TITLE "0:"
    INDEX 01 00:05:59
  TRACK 07 AUDIO
    TITLE "35:cjc123_7644"
    INDEX 01 00:06:31
  TRACK 08 AUDIO
    TITLE "0:"
    INDEX 01 00:10:35
  TRACK 09 AUDIO
    TITLE "33:cjc123_7645"
    INDEX 01 00:11:07
  TRACK 10 AUDIO
    TITLE "0:"
    INDEX 01 00:12:48
  TRACK 11 AUDIO
    TITLE "34:cjc123_7646"
    INDEX 01 00:13:04
  TRACK 12 AUDIO
    TITLE "0:"
    INDEX 01 00:14:29
  TRACK 13 AUDIO
    TITLE "35:cjc123_7647"
    INDEX 01 00:15:09
  TRACK 14 AUDIO
    TITLE "0:"
    INDEX 01 00:19:01
  TRACK 15 AUDIO
    TITLE "33:cjc123_7648"
    INDEX 01 00:19:50
  TRACK 16 AUDIO
    TITLE "0:"
    INDEX 01 00:20:73
  TRACK 17 AUDIO
    TITLE "34:cjc123_7649"
    INDEX 01 00:21:08
  TRACK 18 AUDIO
    TITLE "0:"
    INDEX 01 00:22:21
  TRACK 19 AUDIO
    TITLE "35:cjc123_7650"
    INDEX 01 00:22:68
  TRACK 20 AUDIO
    TITLE "0:"
    INDEX 01 00:26:24
  TRACK 21 AUDIO
    TITLE "33:cjc123_7651"
    INDEX 01 00:27:06
  TRACK 22 AUDIO
    TITLE "0:"
    INDEX 01 00:28:08
  TRACK 23 AUDIO
    TITLE "34:cjc123_7652"
    INDEX 01 00:28:25
  TRACK 24 AUDIO
    TITLE "0:"
    INDEX 01 00:29:27
  TRACK 25 AUDIO
    TITLE "35:cjc123_7653"
    INDEX 01 00:30:03
  TRACK 26 AUDIO
    TITLE "0:"
    INDEX 01 00:33:22
  TRACK 27 AUDIO
    TITLE "33:cjc123_7654"
    INDEX 01 00:33:69
  TRACK 28 AUDIO
    TITLE "0:"
    INDEX 01 00:35:21
  TRACK 29 AUDIO
    TITLE "34:cjc123_7655"
    INDEX 01 00:35:27
  TRACK 30 AUDIO
    TITLE "0:"
    INDEX 01 00:36:38
  TRACK 31 AUDIO
    TITLE "35:cjc123_7656"
    INDEX 01 00:37:08
  TRACK 32 AUDIO
    TITLE "0:"
    INDEX 01 00:41:32
  TRACK 33 AUDIO
    TITLE "33:cjc123_7657"
    INDEX 01 00:42:08
  TRACK 34 AUDIO
    TITLE "0:"
    INDEX 01 00:43:03
  TRACK 35 AUDIO
    TITLE "34:cjc123_7658"
    INDEX 01 00:43:31
  TRACK 36 AUDIO
    TITLE "0:"
    INDEX 01 00:44:38
  TRACK 37 AUDIO
    TITLE "35:cjc123_7659"
    INDEX 01 00:45:12
  TRACK 38 AUDIO
    TITLE "0:"
    INDEX 01 00:47:72
  TRACK 39 AUDIO
    TITLE "33:cjc123_7660"
    INDEX 01 00:48:57
  TRACK 40 AUDIO
    TITLE "0:"
    INDEX 01 00:49:65
  TRACK 41 AUDIO
    TITLE "34:cjc123_7661"
    INDEX 01 00:50:13
  TRACK 42 AUDIO
    TITLE "0:"
    INDEX 01 00:51:16
  TRACK 43 AUDIO
    TITLE "35:cjc123_7662"
    INDEX 01 00:51:65
  TRACK 44 AUDIO
    TITLE "0:"
    INDEX 01 00:55:55
  TRACK 45 AUDIO
    TITLE "33:cjc123_7663"
    INDEX 01 00:56:37
  TRACK 46 AUDIO
    TITLE "0:"
    INDEX 01 00:57:54
  TRACK 47 AUDIO
    TITLE "34:cjc123_7664"
    INDEX 01 00:57:72
  TRACK 48 AUDIO
    TITLE "0:"
    INDEX 01 00:59:04
  TRACK 49 AUDIO
    TITLE "35:cjc123_7665"
    INDEX 01 00:59:55
  TRACK 50 AUDIO
    TITLE "0:"
    INDEX 01 01:03:53
  TRACK 51 AUDIO
    TITLE "33:cjc123_7666"
    INDEX 01 01:04:39
  TRACK 52 AUDIO
    TITLE "0:"
    INDEX 01 01:05:48
  TRACK 53 AUDIO
    TITLE "34:cjc123_7667"
    INDEX 01 01:05:73
  TRACK 54 AUDIO
    TITLE "0:"
    INDEX 01 01:06:71
  TRACK 55 AUDIO
    TITLE "35:cjc123_7668"
    INDEX 01 01:07:41
  TRACK 56 AUDIO
    TITLE "0:"
    INDEX 01 01:11:62
  TRACK 57 AUDIO
    TITLE "33:cjc123_7669"
    INDEX 01 01:12:48
  TRACK 58 AUDIO
    TITLE "0:"
    INDEX 01 01:13:47
  TRACK 59 AUDIO
    TITLE "34:cjc123_7670"
    INDEX 01 01:13:55
  TRACK 60 AUDIO
    TITLE "0:"
    INDEX 01 01:14:53
  TRACK 61 AUDIO
    TITLE "35:cjc123_7671"
    INDEX 01 01:15:39
  TRACK 62 AUDIO
    TITLE "0:"
    INDEX 01 01:19:17
  TRACK 63 AUDIO
    TITLE "33:cjc123_7672"
    INDEX 01 01:19:68
  TRACK 64 AUDIO
    TITLE "0:"
    INDEX 01 01:20:73
  TRACK 65 AUDIO
    TITLE "34:cjc123_7673"
    INDEX 01 01:21:12
  TRACK 66 AUDIO
    TITLE "0:"
    INDEX 01 01:22:17
  TRACK 67 AUDIO
    TITLE "35:cjc123_7674"
    INDEX 01 01:22:66
  TRACK 68 AUDIO
    TITLE "0:"
    INDEX 01 01:26:19
  TRACK 69 AUDIO
    TITLE "33:cjc123_7675"
    INDEX 01 01:26:72
  TRACK 70 AUDIO
    TITLE "0:"
    INDEX 01 01:28:02
  TRACK 71 AUDIO
    TITLE "34:cjc123_7676"
    INDEX 01 01:28:31
  TRACK 72 AUDIO
    TITLE "0:"
    INDEX 01 01:29:39
  TRACK 73 AUDIO
    TITLE "35:cjc123_7677"
    INDEX 01 01:30:13
  TRACK 74 AUDIO
    TITLE "0:"
    INDEX 01 01:33:03
  TRACK 75 AUDIO
    TITLE "33:cjc123_7678"
    INDEX 01 01:33:56
  TRACK 76 AUDIO
    TITLE "0:"
    INDEX 01 01:35:02
  TRACK 77 AUDIO
    TITLE "34:cjc123_7679"
    INDEX 01 01:35:18
  TRACK 78 AUDIO
    TITLE "0:"
    INDEX 01 01:36:33
  TRACK 79 AUDIO
    TITLE "35:cjc123_7680"
    INDEX 01 01:37:07
  TRACK 80 AUDIO
    TITLE "0:"
    INDEX 01 01:41:30
  TRACK 81 AUDIO
    TITLE "33:cjc123_7681"
    INDEX 01 01:42:00
  TRACK 82 AUDIO
    TITLE "0:"
    INDEX 01 01:43:19
  TRACK 83 AUDIO
    TITLE "34:cjc123_7682"
    INDEX 01 01:43:31
  TRACK 84 AUDIO
    TITLE "0:"
    INDEX 01 01:44:40
  TRACK 85 AUDIO
    TITLE "35:cjc123_7683"
    INDEX 01 01:45:16
  TRACK 86 AUDIO
    TITLE "0:"
    INDEX 01 01:48:20
  TRACK 87 AUDIO
    TITLE "33:cjc123_7684"
    INDEX 01 01:49:08
  TRACK 88 AUDIO
    TITLE "0:"
    INDEX 01 01:50:15
  TRACK 89 AUDIO
    TITLE "34:cjc123_7685"
    INDEX 01 01:50:31
  TRACK 90 AUDIO
    TITLE "0:"
    INDEX 01 01:51:40
  TRACK 91 AUDIO
    TITLE "35:cjc123_7686"
    INDEX 01 01:52:12
  TRACK 92 AUDIO
    TITLE "0:"
    INDEX 01 01:55:69
